<?xml version="1.0" encoding="utf-8"?>
<!-- Generator: Adobe Illustrator 27.1.1, SVG Export Plug-In . SVG Version: 6.00 Build 0)  -->
<svg version="1.1" id="Layer_1" xmlns="http://www.w3.org/2000/svg" xmlns:xlink="http://www.w3.org/1999/xlink" x="0px" y="0px"
	 viewBox="0 0 490.95 603.16" style="enable-background:new 0 0 490.95 603.16;" xml:space="preserve">
<style type="text/css">
	.st0{opacity:0.2;}
	.st1{fill:#000072;}
	.st2{fill:#FFFFFF;}
	.st3{fill:#5E5D72;}
	.st4{opacity:0.5;}
	.st5{fill:#F4F4F4;}
	.st6{fill:#FAFAFA;}
	.st7{fill:#F6F6F6;}
	.st8{fill:#F5AFB0;}
	.st9{opacity:0.3;}
	.st10{fill:#F9F9F9;}
	.st11{fill:#FBD67B;}
	.st12{opacity:0.6;}
	.st13{fill:#B199C5;}
	.st14{fill:#FF5582;}
</style>
<g>
	<g class="st0">
		<g>
			<ellipse class="st1" cx="246.16" cy="566.28" rx="239.87" ry="33.8"/>
		</g>
	</g>
	<g>
		<g>
			<g>
				<g>
					<path class="st2" d="M96.16,470.7l32.58,91.84c24.05-5.17,63.71-10.63,123.99-10.63V419.22
						C252.74,419.22,170.09,412.89,96.16,470.7z"/>
				</g>
				<g>
					<path class="st1" d="M128.4,563.17l-0.16-0.44l-32.71-92.21l0.3-0.24c38.27-29.93,78.9-42.37,106.24-47.53
						c29.63-5.59,50.5-4.08,50.71-4.07l0.5,0.04v133.73h-0.54c-61.57,0-101.35,5.78-123.88,10.62L128.4,563.17z M96.8,470.89
						l32.3,91.03c22.59-4.82,62.16-10.51,123.1-10.55V419.72c-3.32-0.19-22.99-1-49.96,4.09C175.09,428.94,134.8,441.27,96.8,470.89
						z"/>
				</g>
			</g>
			<g>
				<g>
					<path class="st3" d="M128.75,562.54c-9.49,2.04-16.55,4.04-21.49,5.64c-2.86,0.93-5.79,1.51-8.75,1.73
						c-6.69,0.52-13.47-0.76-19.57-3.81c-10.7-5.36-23.31-15.87-30.49-36.47c-6.7-19.22-8.13-34.9-3.79-45.82
						c4.85-12.23,16.95-18.48,36.96-17.05c5.29,0.38,10.13,1.75,14.54,3.93C124.94,484.92,135.12,533.37,128.75,562.54z"/>
				</g>
				<g>
					<path class="st1" d="M95.6,570.57c-5.86,0-11.65-1.36-16.9-3.98c-9.91-4.96-23.29-15.37-30.76-36.77
						c-6.87-19.69-8.14-35.24-3.78-46.19c5.14-12.95,17.75-18.8,37.5-17.39c5.18,0.37,10.14,1.71,14.74,3.99
						c29.67,14.66,39.14,63.72,32.87,92.44L129.2,563l-0.34,0.07c-8.03,1.72-15.24,3.62-21.43,5.63c-2.88,0.94-5.87,1.53-8.87,1.76
						C97.57,570.53,96.58,570.57,95.6,570.57z M76.12,467.1c-16.1,0-26.5,5.68-30.96,16.92c-4.26,10.71-2.98,26,3.8,45.44
						c7.35,21.07,20.49,31.3,30.22,36.17c5.95,2.98,12.62,4.27,19.29,3.75c2.92-0.22,5.82-0.8,8.62-1.71
						c6.14-1.99,13.27-3.87,21.2-5.58c3.18-14.94,2-33.94-3.18-50.92c-5.92-19.41-16.28-33.61-29.2-39.99
						c-4.47-2.21-9.3-3.52-14.34-3.88C79.7,467.17,77.87,467.1,76.12,467.1z"/>
				</g>
			</g>
			<g class="st4">
				<g>
					<path class="st2" d="M51.28,536.23c-6.7-19.22-8.13-34.9-3.79-45.82c4.85-12.23,16.95-18.48,36.96-17.05
						c5.29,0.38,10.13,1.75,14.54,3.93c10,4.94,17.75,14.02,23.34,24.98c-5.65-14.68-14.63-27.3-27.11-33.46
						c-4.41-2.18-9.25-3.55-14.54-3.93c-20.02-1.43-32.11,4.82-36.96,17.05c-4.34,10.92-2.91,26.59,3.79,45.82
						c1.31,3.75,2.8,7.16,4.42,10.27C51.71,537.43,51.49,536.84,51.28,536.23z"/>
				</g>
			</g>
			<g>
				<g>
					<path class="st1" d="M95.6,574.33c-6.44,0-12.81-1.49-18.58-4.38c-10.54-5.27-24.75-16.3-32.63-38.9
						c-7.17-20.57-8.43-37-3.73-48.82c4-10.07,14.4-21.67,41.27-19.75c5.67,0.41,11.1,1.88,16.14,4.37
						c31.3,15.46,41.41,66.69,34.88,96.61c-0.36,1.65-1.65,2.93-3.3,3.29c-7.9,1.7-14.99,3.56-21.06,5.53
						c-3.16,1.03-6.44,1.68-9.74,1.93C97.76,574.29,96.68,574.33,95.6,574.33z M76.17,470.87c-14.43,0-23.68,4.88-27.51,14.54
						c-3.86,9.71-2.53,24.51,3.85,42.81c5.56,15.96,15.1,27.41,28.36,34.04c5.34,2.67,11.33,3.84,17.31,3.37
						c2.63-0.2,5.23-0.72,7.75-1.54c5.63-1.82,12.05-3.55,19.14-5.14c4.67-26.92-4.54-71.41-30.81-84.39
						c-4.04-2-8.39-3.17-12.94-3.5C79.53,470.93,77.82,470.87,76.17,470.87z M128.75,562.54L128.75,562.54L128.75,562.54z"/>
				</g>
			</g>
			<g>
				<g>
					<path class="st5" d="M98.51,569.92c-6.69,0.52-13.47-0.76-19.57-3.81c-10.7-5.36-23.31-15.87-30.49-36.47
						c-6.7-19.22-8.13-34.9-3.79-45.82c1.44-0.95,2.98-1.76,4.6-2.44c18.94-7.8,43.1,7.26,53.96,33.64
						C111.89,536.07,109.48,557.97,98.51,569.92z"/>
				</g>
				<g>
					<path class="st1" d="M95.6,570.57c-5.86,0-11.65-1.36-16.9-3.98c-9.91-4.96-23.29-15.37-30.76-36.77
						c-6.87-19.69-8.14-35.24-3.78-46.19l0.06-0.16l0.14-0.09c1.47-0.97,3.04-1.8,4.69-2.48c9.33-3.84,20.16-2.4,30.5,4.04
						c10.29,6.41,18.87,17.03,24.16,29.89c8.54,20.73,6.61,43.02-4.8,55.46l-0.14,0.16l-0.21,0.02
						C97.57,570.53,96.58,570.57,95.6,570.57z M45.1,484.18c-4.18,10.7-2.88,25.93,3.86,45.28c7.35,21.07,20.49,31.3,30.22,36.17
						c5.89,2.94,12.49,4.25,19.08,3.77c11.01-12.17,12.81-33.9,4.46-54.17c-5.21-12.65-13.64-23.09-23.74-29.38
						c-10.04-6.26-20.52-7.67-29.52-3.96C47.94,482.52,46.47,483.29,45.1,484.18z"/>
				</g>
			</g>
			<g>
				<g>
					<path class="st1" d="M95.6,574.33c-6.45,0-12.81-1.49-18.58-4.38c-10.54-5.27-24.75-16.3-32.63-38.9
						c-7.17-20.57-8.43-37-3.73-48.82c0.33-0.82,0.9-1.52,1.63-2c1.67-1.1,3.45-2.04,5.31-2.81c10.48-4.32,22.53-2.78,33.93,4.32
						c10.95,6.83,20.06,18.06,25.65,31.65c9.09,22.06,6.87,45.94-5.51,59.44c-0.74,0.8-1.75,1.29-2.83,1.38
						C97.76,574.29,96.68,574.33,95.6,574.33z M98.51,569.92L98.51,569.92L98.51,569.92z M48.18,486.7
						c-3.26,9.7-1.78,24.01,4.33,41.52c5.56,15.96,15.1,27.41,28.36,34.04c4.83,2.41,10.19,3.6,15.59,3.46
						c9.16-11.32,10.33-30.75,2.78-49.06c-4.91-11.93-12.82-21.74-22.25-27.62c-8.99-5.6-18.25-6.91-26.1-3.68
						C49.96,485.75,49.06,486.19,48.18,486.7z"/>
				</g>
			</g>
			<g>
				<g>
					<path class="st1" d="M128.74,566.84c-1.98,0-3.76-1.38-4.2-3.4c-0.5-2.32,0.98-4.61,3.3-5.11
						c22.23-4.78,61.04-10.46,120.6-10.72V423.35c-7.31-0.15-24.16,0.11-45.76,4.21c-26.74,5.08-66.46,17.27-103.87,46.53
						c-1.87,1.46-4.57,1.13-6.03-0.74c-1.46-1.87-1.13-4.57,0.74-6.03c38.87-30.4,80.11-43.02,107.86-48.26
						c30.12-5.68,50.82-4.19,51.69-4.12c2.24,0.17,3.97,2.04,3.97,4.29v132.69c0,2.37-1.92,4.3-4.3,4.3
						c-61.24,0-100.74,5.73-123.09,10.54C129.35,566.81,129.04,566.84,128.74,566.84z"/>
				</g>
			</g>
			<g>
				<g>
					<path class="st6" d="M376.73,562.54c-24.05-5.17-63.71-10.63-123.99-10.63V419.22c0,0,82.65-6.33,156.57,51.48"/>
				</g>
				<g>
					<path class="st1" d="M376.61,563.07c-22.53-4.85-62.3-10.62-123.88-10.62h-0.54V418.72l0.5-0.04
						c0.21-0.01,21.08-1.52,50.71,4.07c27.34,5.16,67.97,17.6,106.24,47.53l-0.66,0.85c-38.09-29.79-78.53-42.17-105.74-47.31
						c-26.98-5.1-46.64-4.28-49.96-4.09v131.65c61.36,0.03,101.05,5.8,123.57,10.65L376.61,563.07z"/>
				</g>
			</g>
			<g>
				<g>
					<path class="st3" d="M376.73,562.54c9.49,2.04,16.55,4.04,21.49,5.64c2.86,0.93,5.79,1.51,8.75,1.73
						c6.69,0.52,13.47-0.76,19.57-3.81c10.7-5.36,23.31-15.87,30.49-36.47c6.7-19.22,8.13-34.9,3.79-45.82
						c-4.85-12.23-16.95-18.48-36.96-17.05c-5.29,0.38-10.13,1.75-14.54,3.93C380.54,484.92,370.36,533.37,376.73,562.54z"/>
				</g>
				<g>
					<path class="st1" d="M409.88,570.57c-0.98,0-1.97-0.04-2.96-0.12c-3-0.23-5.99-0.82-8.87-1.76c-6.19-2.01-13.4-3.9-21.43-5.62
						l-0.34-0.07l-0.07-0.34c-6.27-28.72,3.2-77.78,32.87-92.44c4.6-2.28,9.56-3.62,14.74-3.99c19.75-1.41,32.36,4.44,37.5,17.39
						c4.36,10.95,3.08,26.5-3.78,46.19c-7.46,21.41-20.85,31.81-30.76,36.77C421.53,569.21,415.74,570.57,409.88,570.57z
						 M377.18,562.09c7.93,1.71,15.06,3.59,21.2,5.58c2.8,0.91,5.7,1.49,8.62,1.71c6.66,0.52,13.34-0.78,19.29-3.75
						c9.73-4.87,22.88-15.1,30.22-36.17c6.78-19.44,8.06-34.73,3.8-45.44c-4.95-12.46-17.21-18.1-36.43-16.71
						c-5.04,0.36-9.87,1.67-14.34,3.88c-12.91,6.38-23.28,20.58-29.2,39.99C375.18,528.15,374,547.15,377.18,562.09z"/>
				</g>
			</g>
			<g class="st4">
				<g>
					<path class="st2" d="M460.81,483.82c-4.85-12.23-16.95-18.48-36.96-17.05c-5.29,0.38-10.13,1.75-14.54,3.93
						c-6.76,3.34-12.48,8.58-17.21,15.01c3.45-3.43,7.3-6.31,11.56-8.41c4.41-2.18,9.25-3.55,14.54-3.93
						c20.02-1.43,32.11,4.82,36.96,17.05c4.34,10.92,2.91,26.59-3.79,45.82c-2.67,7.65-6.08,13.91-9.87,19.02
						c6-6.04,11.58-14.31,15.52-25.62C463.72,510.42,465.16,494.74,460.81,483.82z"/>
				</g>
			</g>
			<g>
				<g>
					<path class="st1" d="M409.88,574.33c-1.08,0-2.16-0.04-3.25-0.13c-3.3-0.25-6.58-0.9-9.74-1.93
						c-6.07-1.97-13.16-3.83-21.06-5.52c-1.65-0.35-2.94-1.64-3.3-3.29c-6.53-29.92,3.58-81.15,34.88-96.61
						c5.04-2.49,10.47-3.96,16.14-4.37c26.87-1.93,37.27,9.68,41.27,19.75c4.7,11.82,3.44,28.24-3.73,48.82
						c-7.88,22.6-22.09,33.63-32.63,38.9C422.69,572.84,416.32,574.33,409.88,574.33z M380.4,558.95
						c7.09,1.59,13.51,3.32,19.13,5.14c2.52,0.82,5.13,1.34,7.75,1.54c5.99,0.47,11.98-0.7,17.32-3.37
						c13.25-6.63,22.79-18.09,28.35-34.04c6.38-18.3,7.71-33.11,3.86-42.81c-4.27-10.77-15.27-15.59-32.66-14.35
						c-4.55,0.33-8.91,1.5-12.94,3.5C384.94,487.54,375.74,532.04,380.4,558.95z"/>
				</g>
			</g>
			<g>
				<g>
					<path class="st5" d="M406.96,569.92c6.69,0.52,13.47-0.76,19.57-3.81c10.7-5.36,23.31-15.87,30.49-36.47
						c6.7-19.22,8.13-34.9,3.79-45.82c-1.44-0.95-2.98-1.76-4.6-2.44c-18.94-7.8-43.1,7.26-53.96,33.64
						C393.59,536.07,396,557.97,406.96,569.92z"/>
				</g>
				<g>
					<path class="st1" d="M409.88,570.57c-0.98,0-1.97-0.04-2.96-0.12l-0.21-0.02l-0.14-0.16c-11.41-12.44-13.34-34.73-4.8-55.46
						c5.3-12.86,13.88-23.47,24.16-29.89c10.34-6.45,21.17-7.88,30.5-4.04c1.64,0.68,3.22,1.52,4.69,2.48l0.14,0.09l0.06,0.16
						c4.36,10.96,3.08,26.5-3.78,46.19c-7.46,21.41-20.85,31.81-30.76,36.77C421.53,569.21,415.74,570.57,409.88,570.57z
						 M407.21,569.4c6.59,0.47,13.19-0.83,19.08-3.77c9.73-4.87,22.88-15.1,30.22-36.17c6.75-19.35,8.04-34.58,3.86-45.28
						c-1.37-0.89-2.84-1.66-4.36-2.3c-8.99-3.7-19.48-2.3-29.52,3.96c-10.1,6.29-18.53,16.73-23.74,29.38
						C394.41,535.5,396.2,557.23,407.21,569.4z"/>
				</g>
			</g>
			<g>
				<g>
					<path class="st1" d="M409.88,574.33c-1.08,0-2.16-0.04-3.25-0.13c-1.09-0.09-2.1-0.58-2.83-1.38
						c-12.38-13.49-14.6-37.38-5.51-59.44c5.59-13.58,14.7-24.82,25.65-31.65c11.4-7.11,23.44-8.64,33.92-4.33
						c1.87,0.78,3.66,1.72,5.32,2.82c0.74,0.48,1.31,1.18,1.63,2c4.7,11.82,3.45,28.24-3.73,48.82
						c-7.88,22.6-22.09,33.63-32.63,38.9C422.69,572.84,416.32,574.33,409.88,574.33z M409.02,565.72
						c5.41,0.14,10.76-1.04,15.59-3.46c13.25-6.63,22.79-18.09,28.35-34.04c6.11-17.51,7.59-31.82,4.33-41.52
						c-0.87-0.5-1.79-0.95-2.72-1.34c-7.83-3.23-17.1-1.92-26.09,3.68c-9.43,5.88-17.34,15.69-22.25,27.62
						C398.69,534.98,399.85,554.41,409.02,565.72z"/>
				</g>
			</g>
			<g>
				<g>
					<path class="st1" d="M409.91,574.35c-4.36,0-8.75-0.69-13.03-2.08c-6.06-1.97-13.15-3.83-21.06-5.53
						c-1.65-0.35-2.94-1.64-3.3-3.29c-6.53-29.92,3.58-81.15,34.88-96.61c5.04-2.49,10.47-3.96,16.14-4.37
						c17.38-1.24,29.89,2.96,37.19,12.49c9.08,11.86,9.2,30.73,0.35,56.08c-7.88,22.6-22.09,33.63-32.63,38.9
						C422.62,572.87,416.3,574.35,409.91,574.35z M380.4,558.95c7.09,1.59,13.52,3.32,19.14,5.14c8.38,2.72,17.28,2.07,25.07-1.83
						c13.25-6.63,22.79-18.08,28.36-34.04c7.72-22.13,8.05-38.74,0.94-48.03c-5.42-7.09-15.43-10.16-29.75-9.13
						c-4.55,0.33-8.91,1.5-12.94,3.5C384.94,487.54,375.74,532.04,380.4,558.95z"/>
				</g>
			</g>
			<g>
				<g>
					<path class="st1" d="M376.73,566.84c-0.3,0-0.6-0.03-0.91-0.1c-22.35-4.81-61.84-10.54-123.09-10.54c-2.37,0-4.3-1.92-4.3-4.3
						V419.22c0-2.25,1.73-4.11,3.97-4.29c0.87-0.07,21.57-1.56,51.69,4.12c27.75,5.24,68.99,17.86,107.86,48.26
						c1.87,1.46,2.2,4.16,0.74,6.03c-1.46,1.87-4.17,2.2-6.03,0.74c-37.41-29.25-77.13-41.45-103.87-46.53
						c-21.6-4.1-38.44-4.36-45.76-4.21v124.27c59.56,0.26,98.37,5.94,120.6,10.72c2.32,0.5,3.8,2.79,3.3,5.11
						C380.5,565.46,378.71,566.84,376.73,566.84z"/>
				</g>
			</g>
			<g>
				<g>
					<path class="st7" d="M378.6,452.87c0,61.77-56.35,111.84-125.86,111.84c-69.51,0-125.86-50.07-125.86-111.84
						s56.35-155.91,125.86-155.91C322.25,296.96,378.6,391.1,378.6,452.87z"/>
				</g>
				<g>
					<path class="st1" d="M252.73,565.24c-69.7,0-126.4-50.41-126.4-112.38c0-61.78,56.63-156.45,126.4-156.45
						s126.4,94.67,126.4,156.45C379.13,514.83,322.43,565.24,252.73,565.24z M252.73,297.49c-69.18,0-125.33,94.02-125.33,155.37
						c0,61.37,56.22,111.3,125.33,111.3c69.1,0,125.33-49.93,125.33-111.3C378.06,391.51,321.91,297.49,252.73,297.49z"/>
				</g>
			</g>
			<g>
				<g>
					<circle class="st8" cx="252.73" cy="484.38" r="80.33"/>
				</g>
			</g>
			<g>
				<g>
					<path class="st1" d="M252.73,569c-71.77,0-130.16-52.1-130.16-116.14c0-32.03,14.44-71.75,37.69-103.65
						c26.58-36.47,59.42-56.56,92.47-56.56c33.05,0,65.89,20.09,92.47,56.56c23.25,31.9,37.69,71.62,37.69,103.65
						C382.9,516.9,324.51,569,252.73,569z M252.73,301.25c-40.79,0-71.09,33.22-85.52,53.03c-22.23,30.51-36.04,68.28-36.04,98.59
						c0,59.3,54.53,107.54,121.56,107.54c67.03,0,121.56-48.24,121.56-107.54c0-30.3-13.81-68.08-36.04-98.59
						C323.83,334.48,293.53,301.25,252.73,301.25z"/>
				</g>
			</g>
			<g class="st9">
				<g>
					<path class="st1" d="M161.81,354.45c24.62,10.69,54.16,16.92,85.92,16.92c35.06,0,67.41-7.59,93.44-20.39
						c-22.73-30.87-53.96-54.02-88.43-54.02C216.98,296.96,184.72,321.86,161.81,354.45z"/>
				</g>
			</g>
			<g>
				<g>
					<g>
						<path class="st10" d="M57.88,142.56c-1.61,6.51,3.17,12.88,9.87,13.16c16.61,0.68,48.42-1.81,84.01-24.34l35.7-62.24
							C187.46,69.14,79.24,56.26,57.88,142.56z"/>
					</g>
					<g>
						<path class="st1" d="M72.35,156.35c-1.66,0-3.21-0.04-4.63-0.09c-3.36-0.14-6.44-1.76-8.46-4.46
							c-2.02-2.69-2.72-6.11-1.91-9.37l0,0c11.1-44.84,45.93-62.52,73.19-69.47c29.48-7.51,56.71-4.39,56.98-4.36l0.81,0.1
							l-36.17,63.06l-0.11,0.07C119.23,152.6,89.5,156.35,72.35,156.35z M58.4,142.69c-0.73,2.94-0.1,6.03,1.73,8.46
							c1.83,2.44,4.61,3.9,7.64,4.03c15.9,0.65,47.88-1.62,83.59-24.18l35.22-61.41c-4.73-0.45-29.35-2.31-55.8,4.43
							C103.82,80.88,69.37,98.38,58.4,142.69L58.4,142.69z"/>
					</g>
				</g>
				<g>
					<g>
						<path class="st1" d="M72.34,160.11c-1.72,0-3.31-0.04-4.77-0.1c-4.49-0.18-8.61-2.36-11.31-5.96
							c-2.7-3.6-3.63-8.17-2.55-12.53c0,0,0,0,0,0c9.14-36.92,35.39-61.89,75.92-72.21c30.15-7.68,57.21-4.59,58.35-4.45
							c1.43,0.17,2.68,1.05,3.33,2.34c0.65,1.29,0.61,2.82-0.11,4.07l-35.7,62.24c-0.35,0.61-0.84,1.12-1.43,1.49
							C120.46,156.27,89.96,160.11,72.34,160.11z M62.05,143.59c-0.46,1.84-0.06,3.78,1.08,5.3c1.15,1.53,2.89,2.45,4.79,2.53
							c15.34,0.63,46.11-1.55,80.64-23.11l31.76-55.38c-9.68-0.43-28.74-0.37-48.82,4.77C93.85,87.37,70.48,109.53,62.05,143.59
							L62.05,143.59z"/>
					</g>
				</g>
				<g>
					<g>
						<path class="st8" d="M63.42,154.58c1.3,0.66,2.76,1.07,4.33,1.13c16.61,0.68,48.42-1.81,84.01-24.34l17.19-29.97
							C141.57,101.63,87.04,108.25,63.42,154.58z"/>
					</g>
					<g>
						<path class="st1" d="M72.35,156.35c-1.66,0-3.21-0.04-4.63-0.09c-1.58-0.06-3.12-0.46-4.55-1.19l-0.48-0.24l0.25-0.48
							c23.43-45.95,76.48-53.22,106.01-53.47l0.94-0.01l-17.72,30.9l-0.11,0.07C119.23,152.6,89.5,156.35,72.35,156.35z
							 M64.15,154.33c1.15,0.51,2.37,0.79,3.62,0.84c15.9,0.65,47.88-1.62,83.59-24.18l16.66-29.04
							C138.66,102.34,87.2,109.81,64.15,154.33z"/>
					</g>
				</g>
				<g class="st9">
					<g>
						<path class="st1" d="M73.89,155.8c22.6-31.57,61.53-39.93,87.79-41.72l7.27-12.67c-27.39,0.23-81.91,6.84-105.54,53.18
							c1.3,0.66,2.76,1.07,4.33,1.13C69.61,155.79,71.67,155.82,73.89,155.8z"/>
					</g>
				</g>
				<g>
					<g>
						<path class="st1" d="M72.34,160.11c-1.72,0-3.31-0.04-4.77-0.1c-2.12-0.09-4.17-0.62-6.09-1.59c-1.02-0.52-1.79-1.42-2.15-2.5
							c-0.35-1.09-0.26-2.27,0.26-3.29c10.83-21.23,28.89-36.69,53.68-45.95c20.61-7.7,41.63-9.45,55.65-9.57
							c1.54-0.05,2.97,0.8,3.75,2.13s0.78,2.97,0.02,4.31l-17.19,29.98c-0.35,0.61-0.84,1.12-1.43,1.49
							C120.46,156.27,89.96,160.11,72.34,160.11z M70.04,151.49c15.94,0.34,45.52-2.57,78.52-23.17l12.84-22.39
							C133.48,107.29,91.5,115.73,70.04,151.49z"/>
					</g>
				</g>
			</g>
			<g>
				<g>
					<g>
						<path class="st10" d="M449.9,142.56c1.61,6.51-3.17,12.88-9.87,13.16c-16.61,0.68-48.42-1.81-84.01-24.34l-35.7-62.24
							C320.32,69.14,428.54,56.26,449.9,142.56z"/>
					</g>
					<g>
						<path class="st1" d="M435.43,156.35c-17.15,0-46.87-3.74-79.7-24.51l-0.11-0.07l-0.07-0.12l-36.1-62.95l0.81-0.1
							c0.27-0.03,27.5-3.14,56.98,4.36c27.26,6.94,62.09,24.63,73.19,69.47l0,0c0.81,3.26,0.11,6.67-1.91,9.37
							c-2.02,2.69-5.1,4.32-8.46,4.46C438.64,156.31,437.09,156.35,435.43,156.35z M356.42,131c35.71,22.56,67.69,24.83,83.59,24.18
							c3.03-0.12,5.82-1.59,7.64-4.03c1.83-2.43,2.46-5.52,1.73-8.46l0,0c-10.97-44.31-45.42-61.8-72.38-68.68
							c-26.45-6.74-51.07-4.87-55.8-4.43L356.42,131z"/>
					</g>
				</g>
				<g>
					<g>
						<path class="st1" d="M435.44,160.11c-17.62,0-48.12-3.83-81.72-25.09c-0.59-0.37-1.08-0.89-1.43-1.49l-35.7-62.24
							c-0.72-1.25-0.76-2.78-0.11-4.07c0.65-1.29,1.9-2.17,3.33-2.34c1.14-0.14,28.2-3.23,58.35,4.45
							c40.52,10.32,66.78,35.29,75.92,72.21c0,0,0,0,0,0c1.08,4.36,0.15,8.93-2.55,12.53c-2.7,3.6-6.83,5.77-11.31,5.96
							C438.75,160.07,437.15,160.11,435.44,160.11z M359.21,128.31c34.53,21.56,65.3,23.73,80.64,23.11c1.9-0.08,3.64-1,4.79-2.53
							c1.15-1.53,1.54-3.46,1.08-5.3v0c-8.43-34.06-31.8-56.23-69.46-65.88c-20.08-5.15-39.13-5.21-48.82-4.77L359.21,128.31z"/>
					</g>
				</g>
				<g>
					<g>
						<path class="st8" d="M444.36,154.58c-1.3,0.66-2.76,1.07-4.33,1.13c-16.61,0.68-48.42-1.81-84.01-24.34l-17.19-29.97
							C366.21,101.63,420.73,108.25,444.36,154.58z"/>
					</g>
					<g>
						<path class="st1" d="M435.43,156.35c-17.15,0-46.87-3.74-79.7-24.51l-0.11-0.07l-0.07-0.12l-17.66-30.79l0.94,0.01
							c29.53,0.25,82.58,7.52,106.01,53.47l0.25,0.48l-0.48,0.24c-1.44,0.73-2.97,1.13-4.55,1.19
							C438.63,156.31,437.09,156.35,435.43,156.35z M356.42,131c35.71,22.56,67.7,24.84,83.59,24.18c1.25-0.05,2.47-0.33,3.62-0.84
							c-23.05-44.53-74.52-51.99-103.87-52.38L356.42,131z"/>
					</g>
				</g>
				<g class="st9">
					<g>
						<path class="st1" d="M433.88,155.8c-22.6-31.57-61.53-39.93-87.79-41.72l-7.27-12.67c27.39,0.23,81.91,6.84,105.54,53.18
							c-1.3,0.66-2.76,1.07-4.33,1.13C438.17,155.79,436.11,155.82,433.88,155.8z"/>
					</g>
				</g>
				<g>
					<g>
						<path class="st1" d="M435.44,160.11c-17.61,0-48.12-3.83-81.72-25.09c-0.59-0.37-1.08-0.89-1.43-1.49l-17.19-29.98
							c-0.77-1.34-0.76-2.98,0.02-4.31s2.22-2.17,3.75-2.13c14.01,0.12,35.04,1.87,55.65,9.57c24.8,9.26,42.86,24.72,53.68,45.95
							c0.52,1.02,0.61,2.2,0.26,3.29c-0.35,1.09-1.13,1.99-2.15,2.5c-1.92,0.97-3.97,1.51-6.1,1.59
							C438.74,160.07,437.15,160.11,435.44,160.11z M359.21,128.31c33.01,20.6,62.58,23.51,78.52,23.17
							c-21.46-35.75-63.44-44.19-91.36-45.56L359.21,128.31z"/>
					</g>
				</g>
			</g>
			<g>
				<g>
					<g>
						<path class="st11" d="M147,11.34c0.7,0.9,1.2,2,1.78,2.99c0.69,1.18,1.38,2.36,2.08,3.54c1.31,2.23,2.72,4.4,4.18,6.53
							c2.98,4.36,6.21,8.56,9.94,12.31c6.32,6.33,14.12,11.14,22.65,13.87c3.66,1.17,7.35,2.14,11.09,3.01
							c1.6,0.38,3.22,0.66,4.84,0.98c1.67,0.33,1.82,2.31,2.06,3.75c0.41,2.44,0.51,4.95,0.62,7.42c0.19,4.13,0.24,8.27,0.21,12.4
							c-0.04,5.02-1.4,9.93-2.87,14.7c-0.92,2.99-2.02,5.93-3.45,8.72c-0.55,1.07-1.17,2.08-1.9,3.03c-0.6,0.78-1.38,1.62-2.35,1.92
							c-1.15,0.36-2.68-0.29-3.81-0.52c-4.4-0.9-8.78-2.07-12.99-3.67c-9.39-3.55-18.16-8.47-25.64-15.22
							c-7.74-6.99-13.89-15.71-17.66-25.46c-3.84-9.94-5.09-20.89-3.44-31.43c0.83-5.31,2.37-10.54,4.72-15.38
							c1.29-2.64,3.07-6.94,6.75-6.11C145.31,9.07,146.12,10.21,147,11.34z"/>
					</g>
				</g>
				<g class="st12">
					<g>
						<path class="st2" d="M206.24,65.75c-0.11-2.46-0.21-4.98-0.62-7.42c-0.24-1.44-0.39-3.42-2.06-3.75
							c-1.62-0.32-3.24-0.6-4.84-0.98c-3.75-0.88-7.43-1.84-11.09-3.01c-8.53-2.73-16.33-7.54-22.65-13.87
							c-3.74-3.74-6.96-7.95-9.94-12.31c-1.46-2.13-2.87-4.31-4.18-6.53c-0.7-1.18-1.39-2.36-2.08-3.54
							c-0.57-0.99-1.08-2.09-1.78-2.99c-0.88-1.14-1.69-2.28-3.19-2.62c-3.68-0.84-5.46,3.46-6.75,6.11
							c-0.06,0.13-0.12,0.27-0.19,0.4c0.4-0.04,0.83-0.02,1.28,0.09c1.49,0.34,2.31,1.48,3.19,2.62c0.7,0.9,1.2,2,1.78,2.99
							c0.69,1.18,1.38,2.36,2.08,3.54c1.31,2.23,2.72,4.4,4.18,6.53c2.98,4.36,6.21,8.56,9.94,12.31
							c6.32,6.33,14.12,11.14,22.65,13.87c3.66,1.17,7.35,2.14,11.09,3.01c1.6,0.38,3.22,0.66,4.84,0.98
							c1.67,0.33,1.82,2.31,2.06,3.75c0.41,2.44,0.51,4.95,0.62,7.42c0.19,4.13,0.24,8.27,0.21,12.4c-0.04,5.02-1.4,9.93-2.87,14.7
							c-0.76,2.44-1.64,4.85-2.71,7.17c0.23-0.01,0.46-0.03,0.67-0.1c0.96-0.3,1.75-1.14,2.35-1.92c0.73-0.96,1.35-1.96,1.9-3.03
							c1.43-2.79,2.52-5.73,3.45-8.72c1.48-4.77,2.84-9.68,2.87-14.7C206.48,74.02,206.43,69.87,206.24,65.75z"/>
					</g>
				</g>
				<g class="st9">
					<g>
						<path class="st1" d="M203.89,80.84c-0.55,1.07-1.17,2.08-1.9,3.03c-0.6,0.78-1.38,1.62-2.35,1.92
							c-1.15,0.36-2.68-0.29-3.81-0.52c-4.4-0.9-8.78-2.07-12.99-3.67c-9.39-3.55-18.16-8.47-25.64-15.22
							c-7.74-6.99-13.89-15.71-17.66-25.46c-2.74-7.08-4.15-14.68-4.14-22.27c-1.44,3.73-2.45,7.62-3.07,11.56
							c-1.65,10.54-0.4,21.49,3.44,31.43c3.77,9.75,9.92,18.47,17.66,25.46c7.48,6.75,16.25,11.67,25.64,15.22
							c4.21,1.59,8.58,2.76,12.99,3.67c1.13,0.23,2.66,0.88,3.81,0.52c0.96-0.3,1.75-1.14,2.35-1.92c0.73-0.96,1.35-1.96,1.9-3.03
							c1.43-2.79,2.52-5.73,3.45-8.72c1.48-4.77,2.84-9.68,2.87-14.7c0.01-1.1-0.01-2.21-0.01-3.32
							C205.71,76.88,204.88,78.9,203.89,80.84z"/>
					</g>
				</g>
				<g>
					<g>
						<path class="st1" d="M195.12,110.91c-1.27,0-2.41-0.31-3.27-0.55c-0.23-0.06-0.45-0.13-0.65-0.17
							c-5.08-1.04-9.54-2.3-13.64-3.86c-10.54-3.99-19.62-9.39-27-16.05c-8.35-7.54-14.85-16.92-18.79-27.1
							c-4.16-10.77-5.44-22.4-3.68-33.64c0.93-5.98,2.65-11.56,5.11-16.6l0.24-0.51c1.36-2.83,4.54-9.45,11.33-7.91
							c2.93,0.67,4.49,2.69,5.51,4.02l0.12,0.15c0.7,0.91,1.2,1.84,1.65,2.66c0.15,0.27,0.29,0.54,0.44,0.8
							c0.56,0.96,1.12,1.91,1.68,2.86l0.39,0.66c1.17,1.98,2.49,4.04,4.02,6.29c3.33,4.87,6.33,8.58,9.44,11.7
							c5.87,5.88,13.11,10.31,20.92,12.82c3.17,1.01,6.59,1.94,10.76,2.92c1.05,0.25,2.12,0.45,3.25,0.67
							c0.48,0.09,0.97,0.19,1.45,0.28c4.47,0.89,5.15,5.26,5.41,6.9l0.06,0.35c0.43,2.57,0.54,5.11,0.66,7.56l0.02,0.37
							c0.18,3.91,0.25,8.04,0.21,12.63c-0.04,5.71-1.61,11.22-3.07,15.94c-1.12,3.61-2.34,6.69-3.73,9.4
							c-0.69,1.35-1.44,2.55-2.31,3.68c-1.36,1.78-2.83,2.9-4.49,3.41C196.46,110.83,195.77,110.91,195.12,110.91z M195.14,102.32
							L195.14,102.32L195.14,102.32z M142.93,13.12c-0.6,0.69-1.37,2.3-1.73,3.05l-0.27,0.55c-2.08,4.26-3.54,9.03-4.34,14.16
							c-1.52,9.75-0.42,19.85,3.2,29.21c3.45,8.94,9.17,17.17,16.53,23.82c6.58,5.94,14.75,10.78,24.28,14.39
							c3.67,1.39,7.7,2.53,12.33,3.48c0.37,0.08,0.77,0.18,1.19,0.3c0.15,0.04,0.33,0.09,0.51,0.14c0.05-0.06,0.12-0.14,0.18-0.23
							c0.55-0.72,1.03-1.49,1.49-2.38c1.16-2.27,2.2-4.89,3.17-8.03c1.34-4.32,2.65-8.92,2.68-13.46c0.03-4.44-0.03-8.42-0.2-12.17
							l-0.02-0.37c-0.1-2.3-0.2-4.47-0.55-6.53l-0.07-0.44c0-0.02-0.01-0.05-0.01-0.07c-1.16-0.22-2.35-0.45-3.56-0.73
							c-4.4-1.03-8.03-2.02-11.42-3.11c-9.11-2.92-17.54-8.08-24.38-14.93c-3.49-3.5-6.81-7.6-10.45-12.92
							c-1.65-2.41-3.07-4.62-4.34-6.78l-0.39-0.65c-0.57-0.97-1.14-1.94-1.71-2.91c-0.19-0.33-0.38-0.68-0.57-1.03
							c-0.32-0.58-0.61-1.14-0.89-1.49l0,0l-0.13-0.17C143.31,13.6,143.1,13.33,142.93,13.12z M202.72,58.79L202.72,58.79
							L202.72,58.79z"/>
					</g>
				</g>
			</g>
			<g>
				<g>
					<g>
						<path class="st11" d="M347.65,11.34c-0.7,0.9-1.2,2-1.78,2.99c-0.69,1.18-1.38,2.36-2.08,3.54c-1.31,2.23-2.72,4.4-4.18,6.53
							c-2.98,4.36-6.21,8.56-9.94,12.31c-6.32,6.33-14.12,11.14-22.65,13.87c-3.66,1.17-7.35,2.14-11.09,3.01
							c-1.6,0.38-3.22,0.66-4.84,0.98c-1.67,0.33-1.82,2.31-2.06,3.75c-0.41,2.44-0.51,4.95-0.62,7.42
							c-0.19,4.13-0.24,8.27-0.21,12.4c0.04,5.02,1.4,9.93,2.87,14.7c0.92,2.99,2.02,5.93,3.45,8.72c0.55,1.07,1.17,2.08,1.9,3.03
							c0.6,0.78,1.38,1.62,2.35,1.92c1.15,0.36,2.68-0.29,3.81-0.52c4.4-0.9,8.78-2.07,12.99-3.67c9.39-3.55,18.16-8.47,25.64-15.22
							c7.74-6.99,13.89-15.71,17.66-25.46c3.84-9.94,5.09-20.89,3.44-31.43c-0.83-5.31-2.37-10.54-4.72-15.38
							c-1.29-2.64-3.07-6.94-6.75-6.11C349.34,9.07,348.52,10.21,347.65,11.34z"/>
					</g>
				</g>
				<g class="st12">
					<g>
						<path class="st2" d="M288.41,65.75c0.11-2.46,0.21-4.98,0.62-7.42c0.24-1.44,0.39-3.42,2.06-3.75
							c1.62-0.32,3.24-0.6,4.84-0.98c3.75-0.88,7.43-1.84,11.09-3.01c8.53-2.73,16.33-7.54,22.65-13.87
							c3.74-3.74,6.96-7.95,9.94-12.31c1.46-2.13,2.87-4.31,4.18-6.53c0.7-1.18,1.39-2.36,2.08-3.54c0.57-0.99,1.08-2.09,1.78-2.99
							c0.88-1.14,1.69-2.28,3.19-2.62c3.68-0.84,5.46,3.46,6.75,6.11c0.06,0.13,0.12,0.27,0.19,0.4c-0.4-0.04-0.83-0.02-1.28,0.09
							c-1.49,0.34-2.31,1.48-3.19,2.62c-0.7,0.9-1.2,2-1.78,2.99c-0.69,1.18-1.38,2.36-2.08,3.54c-1.31,2.23-2.72,4.4-4.18,6.53
							c-2.98,4.36-6.21,8.56-9.94,12.31c-6.32,6.33-14.12,11.14-22.65,13.87c-3.66,1.17-7.35,2.14-11.09,3.01
							c-1.6,0.38-3.22,0.66-4.84,0.98c-1.67,0.33-1.82,2.31-2.06,3.75c-0.41,2.44-0.51,4.95-0.62,7.42
							c-0.19,4.13-0.24,8.27-0.21,12.4c0.04,5.02,1.4,9.93,2.87,14.7c0.76,2.44,1.64,4.85,2.71,7.17c-0.23-0.01-0.46-0.03-0.67-0.1
							c-0.96-0.3-1.75-1.14-2.35-1.92c-0.73-0.96-1.35-1.96-1.9-3.03c-1.43-2.79-2.52-5.73-3.45-8.72
							c-1.48-4.77-2.84-9.68-2.87-14.7C288.17,74.02,288.22,69.87,288.41,65.75z"/>
					</g>
				</g>
				<g class="st9">
					<g>
						<path class="st1" d="M290.76,80.84c0.55,1.07,1.17,2.08,1.9,3.03c0.6,0.78,1.38,1.62,2.35,1.92c1.15,0.36,2.68-0.29,3.81-0.52
							c4.4-0.9,8.78-2.07,12.99-3.67c9.39-3.55,18.16-8.47,25.64-15.22c7.74-6.99,13.89-15.71,17.66-25.46
							c2.74-7.08,4.15-14.68,4.14-22.27c1.44,3.73,2.45,7.62,3.07,11.56c1.65,10.54,0.4,21.49-3.44,31.43
							c-3.77,9.75-9.92,18.47-17.66,25.46c-7.48,6.75-16.25,11.67-25.64,15.22c-4.21,1.59-8.58,2.76-12.99,3.67
							c-1.13,0.23-2.66,0.88-3.81,0.52c-0.96-0.3-1.75-1.14-2.35-1.92c-0.73-0.96-1.35-1.96-1.9-3.03
							c-1.43-2.79-2.52-5.73-3.45-8.72c-1.48-4.77-2.84-9.68-2.87-14.7c-0.01-1.1,0.01-2.21,0.01-3.32
							C288.94,76.88,289.76,78.9,290.76,80.84z"/>
					</g>
				</g>
				<g>
					<g>
						<path class="st1" d="M299.53,110.91c-0.65,0-1.34-0.08-2.04-0.3c-1.65-0.51-3.12-1.63-4.48-3.41
							c-0.86-1.13-1.62-2.34-2.31-3.69c-1.39-2.71-2.61-5.79-3.73-9.4c-1.46-4.72-3.02-10.23-3.07-15.94
							c-0.04-4.59,0.03-8.72,0.21-12.63l0.02-0.37c0.11-2.45,0.23-4.99,0.66-7.56l0.06-0.36c0.26-1.64,0.94-6.01,5.4-6.9
							c0.48-0.1,0.97-0.19,1.45-0.28c1.13-0.22,2.2-0.42,3.25-0.67c4.17-0.98,7.59-1.91,10.76-2.92c7.81-2.5,15.05-6.93,20.92-12.82
							c3.11-3.11,6.11-6.83,9.44-11.69c1.54-2.25,2.86-4.31,4.03-6.29l0.36-0.61c0.57-0.97,1.14-1.93,1.7-2.9
							c0.15-0.26,0.3-0.53,0.44-0.8c0.44-0.82,0.95-1.75,1.65-2.66l0.12-0.15c1.03-1.34,2.59-3.36,5.52-4.03
							c6.78-1.55,9.97,5.08,11.33,7.91l0.24,0.51c2.45,5.04,4.17,10.62,5.11,16.6c1.76,11.24,0.48,22.87-3.68,33.64
							c-3.94,10.18-10.43,19.56-18.79,27.1c-7.37,6.66-16.46,12.06-27,16.05c-4.1,1.55-8.57,2.81-13.65,3.86
							c-0.2,0.04-0.42,0.1-0.64,0.17C301.94,110.6,300.8,110.91,299.53,110.91z M293.35,58.52c0,0.02-0.01,0.05-0.01,0.07
							l-0.07,0.45c-0.34,2.06-0.44,4.23-0.55,6.53l-0.02,0.37c-0.17,3.75-0.24,7.73-0.2,12.17c0.04,4.54,1.34,9.14,2.68,13.46
							c0.97,3.14,2.01,5.76,3.17,8.03c0.45,0.89,0.94,1.66,1.49,2.38c0.07,0.09,0.13,0.16,0.18,0.23c0.17-0.04,0.36-0.09,0.51-0.14
							c0.42-0.11,0.81-0.22,1.18-0.3c4.63-0.95,8.67-2.09,12.34-3.48c9.53-3.61,17.7-8.45,24.28-14.39
							c7.36-6.65,13.08-14.88,16.53-23.82c3.62-9.37,4.73-19.47,3.2-29.21c-0.8-5.13-2.26-9.89-4.34-14.16l-0.27-0.55
							c-0.36-0.75-1.13-2.35-1.73-3.05c-0.18,0.21-0.39,0.48-0.55,0.69l-0.13,0.16l0,0c-0.27,0.36-0.57,0.91-0.89,1.49
							c-0.19,0.35-0.37,0.69-0.57,1.03c-0.57,0.99-1.15,1.97-1.73,2.96l-0.36,0.61c-1.27,2.15-2.69,4.37-4.34,6.78
							c-3.63,5.31-6.95,9.42-10.45,12.91c-6.84,6.85-15.27,12.01-24.38,14.93c-3.39,1.09-7.02,2.07-11.42,3.11
							C295.7,58.07,294.5,58.3,293.35,58.52z M347.65,11.35L347.65,11.35L347.65,11.35z"/>
					</g>
				</g>
			</g>
			<g>
				<g>
					<path class="st10" d="M312.36,314.26l-126.78-2.07c-49.91-0.81-87.28-51.84-78.5-107.19l5.15-32.5
						c0.31-1.98,0.55-3.97,0.77-5.96c7.69-70.68,64.96-124.77,135.8-124.77h0c72.47,0,132.8,56.51,140.72,129.91l4.36,40.42
						C399.79,266.94,361.4,315.06,312.36,314.26z"/>
				</g>
				<g>
					<path class="st1" d="M313.57,314.81c-0.41,0-0.81,0-1.22-0.01l-126.78-2.07c-22.18-0.36-42.77-10.54-57.98-28.65
						c-17.96-21.38-25.63-50.23-21.04-79.17l5.15-32.5c0.33-2.05,0.57-4.15,0.76-5.94c3.75-34.5,19.52-66.19,44.39-89.23
						c25.08-23.23,57.73-36.02,91.95-36.02c35.09,0,68.8,13.34,94.93,37.57c26.02,24.12,42.47,57.09,46.32,92.82l4.36,40.42
						c3.09,28.66-5.69,56.66-24.09,76.82C355.02,305.62,334.91,314.8,313.57,314.81z M248.8,42.3
						c-69.41,0-127.56,53.43-135.27,124.29c-0.2,1.8-0.44,3.91-0.77,5.99l-5.15,32.5c-4.54,28.63,3.04,57.17,20.8,78.31
						c15.01,17.87,35.32,27.91,57.18,28.26l126.78,2.07c21.48,0.36,41.78-8.74,57.16-25.59c18.19-19.93,26.87-47.62,23.81-75.98
						l-4.36-40.42C381.03,97.94,320.76,42.3,248.8,42.3z"/>
				</g>
			</g>
			<g>
				<g>
					<g>
						<g>
							<g>
								<path class="st1" d="M305.51,96.17c13.9-2.44,27.62,10.51,30.63,28.93c3.01,18.42-5.81,35.34-19.71,37.79
									c-13.9,2.44-27.62-10.51-30.63-28.93C282.78,115.53,291.6,98.61,305.51,96.17z"/>
							</g>
						</g>
					</g>
				</g>
				<g>
					<g>
						<g>
							<g>
								<path class="st2" d="M306.94,103.87c4.55,1.34,6.83,7.51,5.1,13.78c-1.74,6.27-6.83,10.27-11.39,8.93
									c-4.55-1.34-6.83-7.51-5.1-13.78C297.29,106.53,302.38,102.53,306.94,103.87z"/>
							</g>
						</g>
					</g>
				</g>
				<g>
					<g>
						<g>
							<g>
								<path class="st13" d="M324.23,142.6c2.19,1.26,2.65,4.72,1.02,7.74c-1.63,3.02-4.72,4.45-6.91,3.19
									c-2.19-1.26-2.65-4.72-1.02-7.74C318.95,142.77,322.04,141.34,324.23,142.6z"/>
							</g>
						</g>
					</g>
				</g>
			</g>
			<g>
				<g>
					<path class="st3" d="M236.02,159.62c8.29-47.43-14.78-93.76-67.6-91.98c-30.2,22.99-50.85,58.35-55.29,99.15
						c-0.22,2.03-0.46,4.06-0.78,6.07l-5.25,33.1c-0.76,4.77-1.17,9.5-1.27,14.18c11.7,9.58,26.05,15.85,41.94,17.31
						C192.18,241.53,227.88,206.18,236.02,159.62z"/>
				</g>
			</g>
			<g>
				<g>
					<g>
						<g>
							<g>
								<path class="st1" d="M193.03,96.17c-13.9-2.44-27.62,10.51-30.63,28.93c-3.01,18.42,5.81,35.34,19.71,37.79
									c13.9,2.44,27.62-10.51,30.63-28.93C215.76,115.53,206.93,98.61,193.03,96.17z"/>
							</g>
						</g>
					</g>
				</g>
				<g>
					<g>
						<g>
							<g>
								<path class="st2" d="M191.59,103.87c-4.55,1.34-6.83,7.51-5.1,13.78c1.74,6.27,6.83,10.27,11.39,8.93
									c4.55-1.34,6.83-7.51,5.1-13.78C201.25,106.53,196.15,102.53,191.59,103.87z"/>
							</g>
						</g>
					</g>
				</g>
				<g>
					<g>
						<g>
							<g>
								<path class="st13" d="M174.3,142.6c-2.19,1.26-2.65,4.72-1.02,7.74c1.63,3.02,4.72,4.45,6.91,3.19
									c2.19-1.26,2.65-4.72,1.02-7.74C179.59,142.77,176.49,141.34,174.3,142.6z"/>
							</g>
						</g>
					</g>
				</g>
			</g>
			<g>
				<g>
					<path class="st1" d="M313.57,318.57c-0.43,0-0.85,0-1.28-0.01l-126.78-2.07c-23.28-0.38-44.88-11.03-60.8-29.99
						c-18.66-22.21-26.63-52.17-21.88-82.18l5.15-32.5c0.31-1.97,0.55-4.02,0.74-5.76c3.85-35.4,20.04-67.92,45.57-91.58
						c25.77-23.88,59.34-37.03,94.51-37.03c36.04,0,70.66,13.7,97.49,38.58c26.68,24.74,43.55,58.54,47.5,95.17l4.36,40.42
						c3.21,29.73-5.92,58.81-25.05,79.76C357.08,308.95,335.98,318.57,313.57,318.57z M248.8,46.06
						c-67.48,0-124.03,51.99-131.53,120.94c-0.2,1.84-0.45,4.02-0.79,6.17l-5.15,32.5c-4.37,27.55,2.91,55,19.97,75.3
						c14.3,17.02,33.6,26.58,54.36,26.92l126.78,2.07c20.38,0.37,39.67-8.32,54.32-24.36c17.47-19.13,25.79-45.76,22.85-73.04
						l-4.36-40.42C377.49,100.26,318.83,46.06,248.8,46.06z"/>
				</g>
			</g>
			<g>
				<g>
					<ellipse class="st8" cx="247.72" cy="252.88" rx="155.67" ry="101.89"/>
				</g>
				<g>
					<path class="st1" d="M247.72,355.31c-86.14,0-156.21-45.95-156.21-102.42s70.08-102.42,156.21-102.42
						c86.13,0,156.21,45.95,156.21,102.42S333.86,355.31,247.72,355.31z M247.72,151.53c-85.54,0-155.14,45.47-155.14,101.35
						s69.59,101.35,155.14,101.35s155.14-45.47,155.14-101.35S333.27,151.53,247.72,151.53z"/>
				</g>
			</g>
			<g class="st4">
				<g>
					<path class="st2" d="M247.72,160.42c83.32,0,151.35,42.84,155.48,96.71c0.13-1.72,0.2-3.44,0.2-5.18
						c0-56.27-69.7-101.89-155.67-101.89c-85.98,0-155.67,45.62-155.67,101.89c0,1.74,0.07,3.46,0.2,5.18
						C96.37,203.26,164.4,160.42,247.72,160.42z"/>
				</g>
			</g>
			<g class="st9">
				<g>
					<path class="st1" d="M247.72,333.34c-82.65,0-150.25-42.16-155.35-95.41c-0.21,2.14-0.32,4.3-0.32,6.48
						c0,56.27,69.7,101.89,155.67,101.89c85.98,0,155.67-45.62,155.67-101.89c0-2.18-0.12-4.33-0.32-6.48
						C397.97,291.18,330.38,333.34,247.72,333.34z"/>
				</g>
			</g>
			<g>
				<g>
					<g>
						<path class="st1" d="M203.43,199.76c0,7.64-16.05,7.64-16.05,0s3.59-13.84,8.03-13.84
							C199.84,185.92,203.43,192.12,203.43,199.76z"/>
					</g>
				</g>
				<g>
					<g>
						<path class="st1" d="M309.95,199.76c0,7.64-16.05,7.64-16.05,0s3.59-13.84,8.03-13.84
							C306.36,185.92,309.95,192.12,309.95,199.76z"/>
					</g>
				</g>
			</g>
			<g>
				<g>
					<g>
						<path class="st1" d="M247.69,309.46c10.93,0,20.97-3.57,28.87-9.53c6.54-4.93,9.68-12.91,8.19-20.65
							c-4.7-24.4-19.51-42.23-37.06-42.23c-17.42,0-32.15,17.56-36.96,41.69c-1.63,8.19,1.7,16.55,8.72,21.66
							C227.26,306.08,237.05,309.46,247.69,309.46z"/>
					</g>
				</g>
				<g>
					<g>
						<path class="st14" d="M247.69,309.46c10.93,0,20.97-3.57,28.87-9.53c0.52-0.39,1.02-0.81,1.5-1.25
							c-4.8-12.06-16.57-20.59-30.34-20.59c-13.77,0-25.54,8.53-30.34,20.59c0.65,0.6,1.34,1.18,2.07,1.71
							C227.26,306.08,237.05,309.46,247.69,309.46z"/>
					</g>
					<g>
						<path class="st1" d="M247.69,309.99c-10.44,0-20.32-3.17-28.55-9.16c-0.7-0.51-1.39-1.08-2.12-1.75l-0.27-0.25l0.14-0.34
							c5.06-12.71,17.16-20.93,30.84-20.93c13.67,0,25.78,8.21,30.83,20.93l0.14,0.35l-0.28,0.25c-0.57,0.51-1.05,0.91-1.53,1.28
							C268.65,306.57,258.28,309.99,247.69,309.99z M218.02,298.54c0.6,0.54,1.17,1.01,1.75,1.43c8.05,5.85,17.7,8.95,27.92,8.95
							c10.36,0,20.5-3.34,28.55-9.42c0.37-0.28,0.75-0.59,1.18-0.97c-4.98-12.1-16.59-19.9-29.7-19.9
							C234.61,278.64,223,286.44,218.02,298.54z"/>
					</g>
				</g>
				<g>
					<g>
						<path class="st1" d="M247.69,313.75c-11.24,0-21.88-3.42-30.76-9.87c-8.4-6.11-12.39-16.06-10.41-25.98
							c5.38-27,21.93-45.15,41.17-45.15c19.43,0,36.02,18.37,41.28,45.71c1.81,9.42-1.95,18.96-9.82,24.9
							C270.27,310.06,259.09,313.75,247.69,313.75z M247.69,241.35c-14.79,0-28.26,15.72-32.74,38.23
							c-1.31,6.58,1.38,13.23,7.04,17.34c7.4,5.38,16.29,8.23,25.71,8.23c9.68,0,18.77-2.99,26.28-8.66
							c5.23-3.95,7.75-10.23,6.56-16.41C276.14,257.28,262.64,241.35,247.69,241.35z"/>
					</g>
				</g>
			</g>
			<g>
				<g>
					<path class="st1" d="M247.72,359.07c-42.41,0-82.34-10.85-112.43-30.54c-30.66-20.06-47.54-46.93-47.54-75.64
						s16.88-55.58,47.54-75.64c30.09-19.7,70.02-30.54,112.43-30.54c42.41,0,82.34,10.85,112.43,30.54
						c30.66,20.06,47.54,46.93,47.54,75.64s-16.88,55.58-47.54,75.64C330.06,348.22,290.13,359.07,247.72,359.07z M247.72,155.29
						c-83.47,0-151.38,43.78-151.38,97.59s67.91,97.59,151.38,97.59c83.47,0,151.38-43.78,151.38-97.59S331.19,155.29,247.72,155.29
						z"/>
				</g>
			</g>
			<g>
				<g>
					<g>
						<g>
							<path class="st7" d="M112.19,436.92c-34.61-13.85-37.6-60.03,14.66-112.11l0.02,0.01c10.04-29.63,64.21-34.14,71.88,19.53
								C206.65,399.63,150.89,452.39,112.19,436.92z"/>
						</g>
						<g>
							<path class="st1" d="M126.66,440.14c-5.14,0-10.09-0.9-14.67-2.73l0,0c-13.29-5.31-22.1-15.56-24.81-28.84
								c-4.85-23.74,9.45-54.39,39.24-84.1c4.88-14.13,20.14-23.27,36.38-21.77c19.38,1.8,33.02,17.33,36.49,41.56
								c4.2,29.42-9.42,61.26-34.7,81.13C152.29,435.06,138.91,440.14,126.66,440.14z M112.39,436.42
								c15.12,6.05,34.38,1.61,51.53-11.86c24.98-19.64,38.45-51.09,34.3-80.13c-3.39-23.7-16.67-38.9-35.52-40.65
								c-15.81-1.47-30.66,7.46-35.32,21.21l-0.2,0.6l-0.23-0.12c-29.37,29.38-43.49,59.58-38.72,82.89
								C90.91,421.46,99.26,431.17,112.39,436.42L112.39,436.42z"/>
						</g>
					</g>
					<g>
						<g>
							<path class="st3" d="M120.38,359.15c0,0,47.93-16.04,73.81,24.62c4.59-12.33,6.5-25.8,4.56-39.43
								c-7.67-53.67-61.84-49.16-71.88-19.53c-0.91,2.68-1.46,5.56-1.57,8.63C124.87,344.53,122.91,352.88,120.38,359.15z"/>
						</g>
						<g>
							<path class="st1" d="M194.32,384.97l-0.58-0.91c-13.24-20.8-32.41-26.33-46.16-27.31c-14.94-1.06-26.91,2.87-27.03,2.91
								l-1.1,0.37l0.44-1.08c2.86-7.08,4.5-15.67,4.88-25.52c0.11-3.03,0.65-5.98,1.6-8.78c4.82-14.22,20.14-23.45,36.43-21.93
								c19.38,1.8,33.02,17.33,36.49,41.56c1.87,13.12,0.33,26.48-4.59,39.69L194.32,384.97z M142.39,355.5
								c1.69,0,3.43,0.06,5.22,0.18c13.81,0.97,32.98,6.45,46.44,26.9c4.56-12.71,5.96-25.55,4.16-38.15
								c-3.39-23.7-16.67-38.9-35.52-40.65c-15.81-1.47-30.66,7.46-35.32,21.21c-0.92,2.7-1.44,5.56-1.55,8.48
								c-0.37,9.51-1.9,17.86-4.55,24.85C124.1,357.52,132.22,355.5,142.39,355.5z"/>
						</g>
					</g>
					<g class="st4">
						<g>
							<path class="st2" d="M198.75,344.35c-7.67-53.67-61.84-49.16-71.88-19.53c-0.02,0.06-0.04,0.13-0.06,0.19
								c15.69-22.62,61.19-21.97,68.17,26.88c1.48,10.38,0.72,20.67-1.76,30.43c0.32,0.48,0.65,0.96,0.96,1.46
								C198.78,371.44,200.69,357.97,198.75,344.35z"/>
						</g>
					</g>
					<g>
						<g>
							<path class="st1" d="M194.19,388.07c-1.46,0-2.83-0.74-3.63-1.99c-9.91-15.57-24.38-24.17-43-25.56
								c-14.24-1.06-25.71,2.67-25.83,2.71c-1.59,0.53-3.34,0.08-4.49-1.14c-1.15-1.22-1.48-3-0.85-4.55
								c2.7-6.67,4.25-14.84,4.61-24.26c0.13-3.39,0.73-6.7,1.8-9.85c5.37-15.85,22.33-26.14,40.34-24.47
								c21.24,1.97,36.14,18.71,39.86,44.78c1.96,13.75,0.35,27.73-4.78,41.53c-0.57,1.53-1.95,2.6-3.58,2.78
								C194.49,388.06,194.34,388.07,194.19,388.07z M142.32,351.73c1.8,0,3.65,0.06,5.56,0.19c18.32,1.29,33.64,9.01,44.79,22.46
								c2.6-9.84,3.21-19.71,1.82-29.43c-3.12-21.86-15.14-35.86-32.14-37.43c-14.1-1.3-27.3,6.55-31.41,18.67
								c-0.8,2.36-1.25,4.85-1.35,7.41c-0.28,7.15-1.19,13.7-2.73,19.56C130.89,352.41,136.24,351.73,142.32,351.73z"/>
						</g>
					</g>
					<g>
						<g>
							<path class="st1" d="M126.9,443.98c-5.66,0-11.15-1.01-16.3-3.08c0,0,0,0,0,0c-14.5-5.8-24.12-17.02-27.1-31.58
								c-5.08-24.84,9.38-56.48,39.67-86.91c5.74-15.27,22.35-25.08,39.98-23.45c21.24,1.97,36.14,18.71,39.86,44.78
								c4.39,30.72-9.78,63.93-36.1,84.62C153.82,438.64,139.89,443.98,126.9,443.98z M113.79,432.92
								c13.86,5.54,31.73,1.31,47.81-11.33c18.19-14.29,37.71-42.94,32.9-76.64c-3.12-21.86-15.14-35.86-32.14-37.43
								c-14.1-1.3-27.3,6.55-31.41,18.67c-0.26,0.77-0.73,1.44-1.35,1.95c-28.45,28.46-42.19,57.41-37.68,79.47
								C94.33,419.41,101.89,428.17,113.79,432.92L113.79,432.92z"/>
						</g>
					</g>
					<g>
						<g>
							<path class="st1" d="M130.44,326.02c-0.69,2.03-1.12,4.15-1.3,6.3l-0.5,7.41c-0.08,1.27-0.32,2.54-0.47,3.81
								c-0.2,1.27-0.29,2.54-0.58,3.81l-0.79,3.79l-0.2,0.95l-0.27,0.94l-0.54,1.88l-0.54,1.88c-0.19,0.62-0.45,1.23-0.67,1.85
								c-0.49,1.22-0.85,2.48-1.42,3.69c-0.56,1.21-1,2.46-1.64,3.65c-0.31,0.6-0.64,1.18-0.97,1.77c-0.31,0.6-0.68,1.16-1.08,1.71
								c-0.79,1.11-1.61,2.19-2.61,3.16c-0.93,1-2.02,1.88-3.13,2.69c-1.16,0.77-2.36,1.48-3.68,1.98
								c-1.33,0.52-2.62,0.89-4.23,0.94c-0.71,0.02-1.31-0.53-1.33-1.24c-0.01-0.3,0.08-0.58,0.25-0.8l0.23-0.32
								c0.31-0.42,0.73-0.91,1.09-1.35l0.54-0.69c0.18-0.22,0.37-0.43,0.53-0.67l2.01-2.7c0.61-0.94,1.28-1.78,1.86-2.73
								c0.64-0.88,1.18-1.84,1.8-2.75c0.15-0.23,0.32-0.45,0.46-0.68c0.14-0.24,0.27-0.48,0.42-0.72c0.29-0.47,0.58-0.95,0.88-1.42
								c0.32-0.46,0.57-0.97,0.83-1.46l0.78-1.5l0.39-0.75l0.31-0.8l0.62-1.6c0.19-0.54,0.42-1.06,0.59-1.61l0.48-1.67l0.48-1.66
								l0.24-0.83l0.18-0.86l0.72-3.42c0.26-1.14,0.34-2.32,0.52-3.48c0.14-1.17,0.36-2.32,0.44-3.5l0.49-7.31
								c0.22-2.74,0.78-5.48,1.67-8.1c0.67-1.97,2.81-3.03,4.78-2.36C130.05,321.91,131.11,324.05,130.44,326.02L130.44,326.02z"/>
						</g>
					</g>
				</g>
				<g class="st9">
					<g>
						<path class="st1" d="M112.19,420.32c-13.6-5.44-22.32-15.88-24.72-29.71c-3.36,22.05,6.1,38.86,24.72,46.31
							c38.14,15.25,92.85-35.78,86.86-90.18C193.96,394.33,146.41,434,112.19,420.32z"/>
					</g>
				</g>
			</g>
			<g>
				<g>
					<g>
						<g>
							<path class="st7" d="M399.29,436.92c34.61-13.85,37.6-60.03-14.66-112.11l-0.02,0.01c-10.04-29.63-64.21-34.14-71.88,19.53
								C304.83,399.63,360.59,452.39,399.29,436.92z"/>
						</g>
						<g>
							<path class="st1" d="M384.82,440.14c-12.25,0-25.64-5.08-37.93-14.74c-25.28-19.87-38.9-51.71-34.7-81.13
								c3.46-24.23,17.1-39.77,36.49-41.56c16.23-1.5,31.5,7.64,36.38,21.77c29.79,29.71,44.09,60.35,39.24,84.1
								c-2.71,13.29-11.53,23.53-24.81,28.84l0,0C394.91,439.24,389.97,440.14,384.82,440.14z M352.17,303.62
								c-1.12,0-2.25,0.05-3.39,0.16c-18.86,1.75-32.13,16.94-35.52,40.65c-4.15,29.04,9.32,60.5,34.3,80.13
								c17.15,13.48,36.41,17.91,51.53,11.86l0,0c13.13-5.25,21.48-14.95,24.16-28.06c4.77-23.32-9.34-53.52-38.72-82.89l-0.21,0.11
								l-0.22-0.59C379.78,312.22,366.67,303.62,352.17,303.62z"/>
						</g>
					</g>
					<g>
						<g>
							<path class="st3" d="M391.1,359.15c0,0-47.93-16.04-73.81,24.62c-4.59-12.33-6.5-25.8-4.56-39.43
								c7.67-53.67,61.84-49.16,71.88-19.53c0.91,2.68,1.46,5.56,1.57,8.63C386.61,344.53,388.57,352.88,391.1,359.15z"/>
						</g>
						<g>
							<path class="st1" d="M317.16,384.97l-0.38-1.01c-4.92-13.21-6.46-26.57-4.59-39.69c3.46-24.23,17.1-39.77,36.49-41.56
								c16.3-1.52,31.62,7.72,36.43,21.93c0.95,2.8,1.49,5.76,1.6,8.79c0.38,9.86,2.02,18.44,4.88,25.52l0.44,1.08l-1.1-0.37
								c-0.12-0.04-12.09-3.97-27.03-2.91c-13.75,0.98-32.92,6.51-46.16,27.31L317.16,384.97z M352.18,303.62
								c-1.12,0-2.25,0.05-3.39,0.16c-18.86,1.75-32.13,16.94-35.52,40.65c-1.8,12.61-0.4,25.44,4.16,38.15
								c13.47-20.44,32.64-25.92,46.44-26.9c12.55-0.89,23.04,1.7,26.34,2.64c-2.66-6.99-4.19-15.34-4.55-24.85
								c-0.11-2.93-0.63-5.78-1.55-8.48C379.78,312.22,366.67,303.62,352.18,303.62z"/>
						</g>
					</g>
					<g class="st4">
						<g>
							<path class="st2" d="M312.73,344.35c7.67-53.67,61.84-49.16,71.88-19.53c0.02,0.06,0.04,0.13,0.06,0.19
								c-15.69-22.62-61.19-21.97-68.17,26.88c-1.48,10.38-0.72,20.67,1.76,30.43c-0.32,0.48-0.65,0.96-0.96,1.46
								C312.7,371.44,310.79,357.97,312.73,344.35z"/>
						</g>
					</g>
					<g>
						<g>
							<path class="st1" d="M317.29,388.07c-0.15,0-0.3-0.01-0.45-0.02c-1.62-0.17-3.01-1.25-3.58-2.78
								c-5.14-13.81-6.75-27.78-4.79-41.53c3.73-26.07,18.63-42.81,39.86-44.78c18.01-1.66,34.98,8.63,40.34,24.47
								c1.07,3.14,1.67,6.46,1.8,9.85c0.36,9.42,1.91,17.58,4.61,24.25c0.63,1.56,0.29,3.33-0.85,4.56
								c-1.15,1.22-2.9,1.66-4.49,1.13c-0.25-0.08-11.67-3.77-25.82-2.71c-18.63,1.39-33.09,9.99-43,25.56
								C320.12,387.33,318.75,388.07,317.29,388.07z M352.19,307.38c-1.01,0-2.03,0.05-3.06,0.14c-17,1.58-29.02,15.57-32.14,37.43
								c-1.39,9.72-0.77,19.58,1.82,29.43c11.15-13.44,26.47-21.16,44.79-22.46c8.38-0.59,15.79,0.27,21.02,1.24
								c-1.54-5.86-2.45-12.4-2.73-19.55c-0.1-2.57-0.55-5.06-1.35-7.42C376.73,314.95,365.1,307.38,352.19,307.38z"/>
						</g>
					</g>
					<g>
						<g>
							<path class="st1" d="M384.58,443.98c-12.99,0-26.92-5.34-40.01-15.63c-26.32-20.68-40.49-53.9-36.1-84.62
								c3.72-26.07,18.63-42.81,39.86-44.78c17.63-1.63,34.24,8.18,39.98,23.45c30.29,30.43,44.75,62.07,39.67,86.91
								c-2.98,14.57-12.6,25.78-27.1,31.58c0,0,0,0,0,0C395.73,442.97,390.24,443.98,384.58,443.98z M399.29,436.92L399.29,436.92
								L399.29,436.92z M352.18,307.38c-1.01,0-2.03,0.05-3.06,0.14c-17,1.58-29.02,15.57-32.14,37.43
								c-4.81,33.7,14.72,62.35,32.9,76.64c16.08,12.64,33.95,16.87,47.81,11.33h0c11.89-4.76,19.46-13.51,21.87-25.32
								c4.51-22.07-9.24-51.04-37.73-79.52c-0.59-0.5-1.04-1.15-1.29-1.89C376.73,314.95,365.09,307.38,352.18,307.38z"/>
						</g>
					</g>
					<g>
						<g>
							<path class="st1" d="M388.18,323.6c0.89,2.62,1.45,5.36,1.67,8.1l0.49,7.31c0.08,1.18,0.3,2.33,0.44,3.5
								c0.18,1.16,0.27,2.34,0.52,3.48l0.72,3.42l0.18,0.86l0.24,0.83l0.48,1.66l0.48,1.67c0.17,0.55,0.4,1.07,0.59,1.61l0.62,1.6
								l0.31,0.8l0.39,0.75l0.78,1.5c0.26,0.5,0.51,1.01,0.83,1.46c0.31,0.47,0.59,0.94,0.88,1.42c0.15,0.24,0.28,0.48,0.42,0.72
								c0.15,0.23,0.31,0.45,0.46,0.68c0.62,0.91,1.16,1.87,1.8,2.75c0.58,0.94,1.25,1.79,1.86,2.73l2.01,2.7
								c0.17,0.24,0.35,0.45,0.53,0.67l0.54,0.69c0.36,0.43,0.78,0.92,1.09,1.35l0.23,0.32c0.42,0.57,0.29,1.38-0.28,1.8
								c-0.24,0.18-0.53,0.26-0.8,0.25c-1.6-0.05-2.9-0.42-4.23-0.94c-1.32-0.5-2.52-1.21-3.68-1.98c-1.11-0.81-2.2-1.69-3.13-2.69
								c-1-0.96-1.82-2.05-2.61-3.16c-0.4-0.55-0.77-1.12-1.08-1.71c-0.32-0.59-0.66-1.18-0.97-1.77c-0.64-1.18-1.08-2.44-1.64-3.65
								c-0.57-1.21-0.93-2.47-1.42-3.69c-0.22-0.62-0.48-1.23-0.67-1.85l-0.54-1.88l-0.54-1.88l-0.27-0.94l-0.2-0.95l-0.79-3.79
								c-0.28-1.26-0.38-2.54-0.58-3.81c-0.15-1.27-0.39-2.54-0.47-3.81l-0.5-7.41c-0.18-2.15-0.61-4.27-1.3-6.3l0,0
								c-0.67-1.97,0.39-4.11,2.36-4.78C385.37,320.57,387.51,321.63,388.18,323.6z"/>
						</g>
					</g>
				</g>
				<g class="st9">
					<g>
						<path class="st1" d="M399.29,420.32c13.6-5.44,22.32-15.88,24.72-29.71c3.36,22.05-6.1,38.86-24.72,46.31
							c-38.14,15.25-92.85-35.78-86.86-90.18C317.52,394.33,365.07,434,399.29,420.32z"/>
					</g>
				</g>
			</g>
			<g class="st9">
				<g>
					<path class="st1" d="M398.03,529.44c0,0-19.32-9.21-43.21-11.14h0c-66.06,23.28-138.1,23.28-204.17,0h0
						c-23.89,1.93-43.21,11.14-43.21,11.14c-23.79,45.22-53.03,12.64-53.99,11.54c0.14,0.26,0.28,0.53,0.42,0.79
						c7.19,12.83,16.71,20.16,25.07,24.35c0.01,0.01,0.03,0.01,0.04,0.02c0.67,0.34,1.36,0.64,2.04,0.94
						c0.19,0.08,0.38,0.16,0.57,0.23c0.57,0.23,1.14,0.45,1.72,0.65c0.15,0.05,0.3,0.11,0.45,0.16c0.72,0.24,1.44,0.46,2.18,0.65
						c0.14,0.04,0.28,0.07,0.41,0.1c0.6,0.15,1.21,0.29,1.81,0.41c0.21,0.04,0.42,0.08,0.63,0.12c0.65,0.12,1.31,0.23,1.97,0.31
						c0.09,0.01,0.18,0.03,0.27,0.04c0.73,0.09,1.46,0.15,2.2,0.2c0.22,0.01,0.45,0.02,0.67,0.03c0.55,0.03,1.11,0.04,1.67,0.04
						c0.22,0,0.43,0,0.65,0c0.73-0.01,1.47-0.04,2.2-0.1c0.03,0,0.06,0,0.09,0c0.15-0.01,0.3-0.04,0.45-0.05
						c0.49-0.04,0.98-0.09,1.47-0.16c0.27-0.03,0.53-0.08,0.79-0.12c0.42-0.06,0.83-0.13,1.25-0.21c0.27-0.05,0.54-0.1,0.81-0.16
						c0.44-0.09,0.87-0.19,1.31-0.3c0.23-0.06,0.46-0.11,0.69-0.17c0.66-0.18,1.32-0.37,1.98-0.58c0.2-0.06,0.4-0.13,0.61-0.2
						c4.07-1.3,9.51-2.85,16.45-4.46c1.41-0.33,2.89-0.66,4.43-0.99c15.84-3.41,38.44-6.94,69.23-8.95
						c16.56,7.12,35.13,11.11,54.76,11.11s38.2-3.99,54.76-11.11c30.8,2.01,53.4,5.54,69.24,8.95c1.54,0.33,3.01,0.66,4.43,0.99
						c6.94,1.61,12.37,3.15,16.45,4.46c0.2,0.07,0.41,0.13,0.61,0.2c0.65,0.21,1.31,0.4,1.98,0.58c0.23,0.06,0.46,0.11,0.69,0.17
						c0.43,0.11,0.87,0.21,1.31,0.3c0.27,0.06,0.54,0.11,0.81,0.16c0.41,0.08,0.83,0.15,1.25,0.21c0.26,0.04,0.53,0.08,0.79,0.12
						c0.49,0.06,0.98,0.11,1.47,0.16c0.15,0.01,0.3,0.04,0.45,0.05c0.03,0,0.06,0,0.09,0c0.73,0.06,1.47,0.09,2.2,0.1
						c0.22,0,0.43,0,0.65,0c0.56,0,1.11-0.01,1.67-0.04c0.22-0.01,0.45-0.02,0.67-0.03c0.73-0.05,1.47-0.11,2.2-0.2
						c0.09-0.01,0.18-0.03,0.27-0.04c0.66-0.09,1.31-0.19,1.97-0.31c0.21-0.04,0.42-0.08,0.63-0.12c0.61-0.12,1.21-0.26,1.81-0.41
						c0.14-0.04,0.28-0.07,0.41-0.1c0.73-0.2,1.46-0.41,2.18-0.65c0.15-0.05,0.3-0.11,0.45-0.16c0.58-0.2,1.15-0.42,1.72-0.65
						c0.19-0.08,0.38-0.15,0.57-0.23c0.69-0.29,1.37-0.6,2.05-0.94c0.01-0.01,0.03-0.01,0.04-0.02
						c8.36-4.18,17.88-11.51,25.07-24.35c0.14-0.25,0.28-0.53,0.42-0.79C451.06,542.07,421.82,574.66,398.03,529.44z"/>
				</g>
			</g>
		</g>
	</g>
</g>
</svg>
